<svg version="1.1" xmlns="http://www.w3.org/2000/svg" xmlns:xlink="http://www.w3.org/1999/xlink" width="174.46389" height="104.6925" viewBox="0,0,174.46389,104.6925"><g transform="translate(-153.84013,-126.71255)"><g data-paper-data="{&quot;isPaintingLayer&quot;:true}" fill-rule="nonzero" stroke-linejoin="miter" stroke-miterlimit="10" stroke-dasharray="" stroke-dashoffset="0" style="mix-blend-mode: normal"><path d="M218.88508,182.98283c0,-1.38071 1.11929,-2.5 2.5,-2.5c1.38071,0 2.5,1.11929 2.5,2.5c0,1.38071 -1.11929,2.5 -2.5,2.5c-1.38071,0 -2.5,-1.11929 -2.5,-2.5z" fill="#bda9a9" stroke="none" stroke-width="0.5" stroke-linecap="butt"/><path d="M186.71161,203.79765c-2.5,0 -2.5,-2.5 -2.5,-2.5v-0.88365c-0.83953,-0.65638 -1.67736,-1.35949 -2.53812,-2.12314c-0.91111,-1.03298 -1.80085,-2.08279 -2.67515,-3.14479c-0.84203,-0.98192 -1.65384,-1.98937 -2.42915,-3.02276c-2.54851,-3.23843 -5.00861,-6.54702 -7.54022,-9.80066c-2.49776,-3.21014 -5.30098,-6.35254 -6.61539,-10.31487c-0.70228,-2.11706 -1.18059,-4.55285 -1.35161,-7.00092c-0.25681,0.0891 -0.53265,0.13751 -0.81978,0.13751c-1.24141,0 -2.27149,-0.90483 -2.4667,-2.09096l-0.10774,-0.58577c-0.24323,-0.23341 -0.43936,-0.51555 -0.57269,-0.83071l-1.24222,-2.76287l0.04702,-0.02114c-0.04565,-0.06617 -0.09042,-0.13304 -0.13428,-0.20063c-0.61203,-0.94338 -0.52681,-2.18585 -0.78529,-3.28088l-1.02579,-3.549c-0.07431,-0.23668 -0.11437,-0.48853 -0.11437,-0.74974c0,-1.32023 1.02338,-2.40145 2.32014,-2.49363v-2.4061c0,-0.39629 0.0922,-0.77105 0.25633,-1.10398c-0.18598,-1.53903 -0.37126,-3.06596 -0.64361,-4.52816l0.01277,-0.04675l-0.01973,0.00296l-0.41528,-2.77094c-0.02248,-0.13477 -0.03418,-0.27318 -0.03418,-0.41433c0,-0.39636 0.09224,-0.77117 0.25642,-1.10415c-0.00303,-0.04243 -0.00543,-0.085 -0.00716,-0.12771c-0.0083,-0.20399 -0.00276,-0.40619 0.01452,-0.60686l-0.0468,-0.00327l0.20951,-3.00307c0.07946,-1.30907 1.16629,-2.34618 2.49535,-2.34618c0.68554,0 1.30664,0.27594 1.75827,0.7228l0.25626,0.25331c0.26053,-0.09204 0.54088,-0.14211 0.83292,-0.14211c0.70975,0 1.35041,0.29577 1.80548,0.77077l2.00081,2.08192l-0.0042,0.00404l0.01526,0.00755c1.50159,1.60702 3.07901,3.10115 4.66262,4.59502c0.2127,0.08071 0.41152,0.18962 0.5919,0.32215l3.03485,2.1724l-0.02789,0.03896l0.1637,0.06548c0.02308,0.02179 0.04635,0.04348 0.06979,0.06506c0.07818,-0.00737 0.15742,-0.01114 0.23753,-0.01114c0.75966,0 1.44018,0.33882 1.89869,0.87358l1.88843,2.17785l-0.00274,0.00237l0.00795,0.00366c0.13168,0.15411 0.263,0.30861 0.39399,0.46347c0.342,0.22272 0.58876,0.57568 0.80856,0.96552c1.65025,1.99005 3.24685,4.03307 4.80043,6.09283c0.69651,0.92344 1.66348,1.7442 1.96296,2.86142c0.01674,0.06244 0.03261,0.12502 0.04766,0.18773l0.04147,-0.02006l1.13761,2.35133c0.17392,0.34066 0.27202,0.72649 0.27202,1.13523c0,0.83725 -0.41157,1.57837 -1.04343,2.03208l0.9844,1.18934l1.27113,1.28444l-0.00557,0.00551c0.01149,0.00804 0.02296,0.01608 0.03444,0.02415c0.78923,0.55525 1.50707,1.1934 2.18198,1.88082c0.29374,-1.05402 1.2608,-1.82737 2.40848,-1.82737c0.65316,0 1.24782,0.25048 1.69315,0.66062l2.82534,2.58379c0.10064,0.03658 0.20005,0.07527 0.29833,0.11598c0.11461,-0.0161 0.23172,-0.02441 0.35077,-0.02441c0.58603,0 1.12495,0.20164 1.5512,0.53931l2.93522,2.27975l-0.01056,0.01361c0.02817,0.01517 0.05626,0.03047 0.08431,0.04594c0.16771,0.09249 0.40451,0.26875 0.69133,0.50716c0.44702,-0.41883 1.04803,-0.67529 1.70894,-0.67529c0.68554,0 1.30664,0.27593 1.75827,0.72279l2.31939,2.29275l-0.03531,0.03572l0.11726,0.04919c1.07022,1.27727 2.13582,2.55824 3.19846,3.8416c0.45854,-0.555 1.15208,-0.90868 1.92822,-0.90868c0.51241,0 0.98882,0.15416 1.38537,0.41863c0.03023,-0.00108 0.06059,-0.00163 0.09109,-0.00163c0.73792,0 1.40117,0.31971 1.85879,0.82817l2.73501,3.01554l-0.04803,0.04356c0.07468,0.05607 0.14873,0.11309 0.22211,0.17112c0.70412,0.55683 0.97996,1.48245 1.36073,2.31772c0.03185,0.02131 0.06318,0.04333 0.09397,0.06604l2.28745,1.64449c0.93288,0.65323 1.86759,1.30494 2.80424,1.95415c0.22982,-0.41197 0.57278,-0.75221 0.98686,-0.97868c0.07716,0.61632 0.60302,1.09315 1.24025,1.09315c0.62425,0 1.14162,-0.4576 1.23498,-1.05566l1.14108,0.56399c0.98427,-0.32621 1.85446,-0.626 2.44985,-0.74975c0.93622,-0.19459 5.77638,-0.9676 6.61601,-1.0736c1.11647,-0.14094 2.3027,-0.71254 3.36007,-0.3274c0.14443,0.05261 0.28669,0.10961 0.42699,0.17052l0.02499,-0.09481l3.11205,0.82035c1.09828,0.26353 1.91455,1.25198 1.91455,2.43107c0,1.31775 -1.01954,2.39738 -2.31284,2.4931l-1.95065,0.16528c0.63251,0.16221 1.26331,0.33142 1.89155,0.51092c6.52074,0.50403 12.75497,0.28707 18.99933,-0.93097c0.25597,-1.86314 0.59103,-4.36017 2.30021,-5.11962c1.02042,-0.45341 2.77002,0.6695 4.31086,1.9236c1.23436,-0.79278 2.66571,-1.30172 4.15021,-1.43241c1.33065,-0.11714 2.81579,0.03694 4.31635,0.42275c0.98742,0.19276 1.9552,0.57304 2.88229,1.02374c0.37969,0.17341 0.75437,0.36073 1.12163,0.56126c0.03687,-1.34852 1.14162,-2.43038 2.49905,-2.43038c0.68554,0 1.30664,0.27594 1.75828,0.7228l2.10846,2.08424l-0.01524,0.01542l0.05579,0.02559c0.93967,1.02052 1.94671,2.10968 2.9591,3.25171c0.16647,-0.03492 0.33904,-0.05329 0.5159,-0.05329c0.81561,0 1.54001,0.39058 1.99634,0.9949l1.63221,2.11768c0.15236,0.17208 0.3041,0.34467 0.45526,0.51771c0.44166,0.2702 0.75307,0.72386 1.04206,1.20893c2.20777,2.59253 4.32457,5.25788 6.56221,7.82603c1.0813,1.24102 2.45859,2.24781 3.33704,3.63981c0.00016,0.00025 0.0003,0.00048 0.00046,0.00073l0.00011,-0.0001l3.37038,3.68237c0.41053,0.44542 0.66129,1.04036 0.66129,1.69387c0,0.09341 -0.00513,0.18563 -0.01511,0.27639c0.97508,1.28402 1.82416,2.69653 2.47906,3.68602l1.79818,4.6253c0,0 0.04091,0.10614 0.08263,0.28187c2.32101,2.36757 4.64202,4.73514 6.96303,7.10271c0,0 1.75013,1.78524 -0.0351,3.53536c-1.78523,1.75013 -3.53536,-0.03511 -3.53536,-0.03511c-0.06015,-0.06135 -0.1203,-0.12272 -0.18045,-0.18407c-0.46001,0.1784 -0.84624,0.20021 -0.84624,0.20021c-7.30142,0.40287 -14.52837,-0.96691 -21.75225,-2.22268c-0.44561,0.4115 -1.04126,0.66292 -1.69563,0.66292c-0.06786,0 -0.13509,-0.0027 -0.20159,-0.00801l-2.84436,-0.20083c-1.55494,0.38007 -3.22986,0.41534 -4.94594,0.30558c-0.39829,0.26807 -0.87795,0.42452 -1.39416,0.42452c-0.29388,0 -0.57591,-0.0507 -0.83782,-0.14384l-2.34083,-0.77132c-1.74799,-0.21283 -3.4671,-0.39415 -5.07566,-0.33702c-6.90325,0.24518 -13.80955,0.91526 -20.69459,1.04312c-6.88671,0.12789 -13.83051,-0.52522 -20.72328,-0.52069c-4.12088,0 -8.22118,0.20768 -12.33895,0.2085c-0.03049,0 -5.42862,0.00257 -5.46892,-0.00768c-3.45387,-0.87878 -6.03661,-1.59184 -4.88287,-4.06941c-0.91402,0.09138 -2.04027,-0.10362 -3.51374,-0.71807c-1.03138,-0.43009 -4.19015,-5.03373 -4.73286,-5.71348c-1.98078,-2.48095 -4.52327,-4.43999 -6.65798,-6.77468c-1.07443,-1.17508 -2.03074,-2.41941 -3.01623,-3.64396c-0.00268,-0.00214 -0.00534,-0.00428 -0.00802,-0.00642l-0.6107,-0.43741c-2.01051,-0.14987 -3.97089,-1.81172 -5.65473,-2.64419c-1.08313,-0.53549 -2.09096,-1.08225 -3.05273,-1.6567c-0.36737,0.31378 -0.89163,0.53768 -1.63979,0.53768z" fill="#0060b0" stroke="none" stroke-width="0.5" stroke-linecap="butt"/><path d="M244.047,150.82802c0,0 1.83434,-4.43967 5.92073,-7.68029c3.84258,-3.04728 9.84938,-4.89601 12.89775,-5.23366c7.48356,-0.8289 15.40929,2.21141 18.34646,1.74673c3.03206,-0.47969 7.00602,-1.21003 7.00602,-1.21003c0,0 -2.18844,2.47355 -1.50767,4.0123c0.68077,1.53875 4.39288,0.29868 4.39288,0.29868c0,0 -4.03283,7.36369 -4.02564,8.07375c0.04543,4.48635 -3.76853,9.96294 -3.70649,14.97882c0.06466,5.22742 0.95062,11.76153 1.03059,13.6574c0.07716,1.82915 3.65098,5.37211 3.65098,5.37211l-4.70633,-1.16957l-0.29866,4.47993l-5.07725,-2.3893l-4.77859,6.57056l-3.88261,-8.36253l-10.15451,12.84247v-4.77859l-15.53043,2.68796l4.18127,-3.88261l-12.84247,0.29867l6.57057,-5.67458l-10.45317,0.29866l7.16789,-6.2719l2.68796,-9.25852" fill="#f5f5f5" stroke="#000000" stroke-width="3" stroke-linecap="round"/><path d="M312.00143,209.8679l-5.37592,-0.89598l-5.37592,-4.77859h-12.84247l-0.59733,-16.42642c0,0 6.60269,1.1427 10.68412,4.02993c2.52871,1.78882 1.95077,3.37543 4.08744,4.78997c1.21868,0.80681 2.2429,1.81688 3.57456,3.35468c1.54442,1.78349 3.37821,4.15265 4.81733,6.14661z" fill="#cdcdcd" stroke="#000000" stroke-width="3" stroke-linecap="round"/><path d="M257.36268,164.09363c0,0 -0.70452,6.97098 -8.05558,7.08224c-5.01808,0.07594 -13.44809,-5.58893 -13.44809,-5.58893" fill="#bda9a9" stroke="#000000" stroke-width="2.5" stroke-linecap="round"/><path d="M239.75109,165.06427c0,0 6.7737,2.72682 9.3315,2.12122c2.81692,-0.66695 4.35402,-3.94563 4.35402,-3.94563c0,0 -1.89396,1.72284 -5.03094,1.63233c-0.518,-0.01495 -5.93737,-0.45299 -7.41897,-0.27231c-2.15661,0.263 -8.71164,2.12056 -8.71164,2.12056c0,0 -0.25425,-4.38773 -0.14367,-6.5275c0.08216,-1.58979 1.06291,-2.95894 1.37275,-3.94314c0.33993,-1.07979 1.2426,-3.25444 3.16931,-4.1707c2.86751,-1.36366 4.19637,-0.74923 5.41445,-0.63818c1.41267,0.12879 3.03437,0.93273 3.92764,0.85829c2.29092,-0.19091 5.8051,-1.75912 5.8051,-1.75912c0,0 1.4717,2.43706 2.49298,4.33552c0.79544,1.47864 3.52051,3.49886 4.87775,6.09476c0.74909,1.43275 1.29344,3.13197 -0.33558,3.28887c-1.45999,0.14062 -5.07706,-1.19267 -5.07706,-1.19267" fill="#dbd5b3" stroke="#000000" stroke-width="2.5" stroke-linecap="round"/><path d="M233.22887,186.36221c0,0 -3.7758,1.22748 -5.05545,-0.13367c-2.66486,-2.83457 -7.45683,-7.82885 -11.67837,-11.68507" fill="none" stroke="#000000" stroke-width="2.5" stroke-linecap="round"/><path d="M195.03435,207.89251l28.23345,2.43069l0.37395,17.38881l-11.91653,-0.4331c0,0 -2.61372,-4.52878 -8.59418,-9.85639c-0.93393,-0.83198 -2.188,-2.10876 -3.56424,-3.58019l-1.94735,-4.21597" fill="#bcbcbc" stroke="#000000" stroke-width="2.5" stroke-linecap="round"/><path d="M193.89989,207.53488c-2.69894,-3.08955 -4.83656,-5.63029 -4.83656,-5.63029c0,0 -1.65769,3.37241 -2.26158,2.74389c-5.71396,-5.94703 -14.79038,-18.70332 -14.79038,-18.70332c0,0 1.28888,7.16494 -1.78986,1.73825c-3.07874,-5.42669 -5.69833,-14.93716 -5.69833,-14.93716c0,0 -2.6577,2.03819 -3.02683,2.17592c-0.36913,0.13773 -0.05387,-0.45928 -0.1176,-1.00268c-0.27694,-2.36118 -0.12979,-12.95832 -0.12979,-12.95832c0,0 -3.62157,7.4635 -5.1314,-3.60967c-1.50983,-11.07318 -0.54081,-28.63106 -0.54081,-28.63106c0,0 11.65596,6.09922 17.48741,10.76438c0.35161,0.28129 0.74976,0.57461 1.18488,0.8893" fill="none" stroke="#000000" stroke-width="2.5" stroke-linecap="round"/><path d="M214.82457,174.5274l-9.25852,11.64782l-15.82909,-15.53043l-5.37592,6.86923l-10.75183,-16.72507l4.03136,-6.85993l-6.3582,-7.42117l5.01731,-7.45094l6.78303,5.04223l2.80465,5.04836l17.38881,13.64928l14.21021,6.91813z" fill="#dbdbdb" stroke="#000000" stroke-width="3" stroke-linecap="round"/><path d="M189.27159,169.13789l-8.06387,-19.41303l2.94509,-1.96165" fill="none" stroke="#000000" stroke-width="0.5" stroke-linecap="round"/><path d="M207.78864,183.17501l-20.30902,-18.81571" fill="none" stroke="#000000" stroke-width="1" stroke-linecap="round"/><path d="M174.49938,160.64515l2.2284,-3.75239l2.3893,3.58394l-1.79197,3.58394z" fill="#007309" stroke="#000000" stroke-width="1" stroke-linecap="round"/><path d="M241.23879,152.71148l0.59732,7.16789l-8.95986,-0.59732" fill="none" stroke="#000000" stroke-width="1" stroke-linecap="round"/><path d="M240.81721,153.14167c0,0.64036 -0.53486,1.15947 -1.19465,1.15947c-0.65979,0 -1.19465,-0.51911 -1.19465,-1.15947c0,-0.64036 0.53486,-1.15947 1.19465,-1.15947c0.65979,0 1.19465,0.51911 1.19465,1.15947z" fill="none" stroke="#000000" stroke-width="1" stroke-linecap="butt"/><path d="M156.55528,143.70051l11.21859,11.96649l-6.17022,10.47068" fill="none" stroke="#000000" stroke-width="2.5" stroke-linecap="round"/><path d="M223.26779,219.85899h-6.17022l0.56093,2.80465l4.48743,4.48743l-13.64928,-11.77952l14.21021,0.56093" fill="#369900" stroke="#000000" stroke-width="2" stroke-linecap="round"/><path d="M177.13148,193.23143l7.76521,0.59732l5.97324,2.3893l0.59732,7.46655" fill="none" stroke="#000000" stroke-width="1" stroke-linecap="round"/><path d="M303.63322,196.66106l-3.15223,2.11559l-8.96493,-1.11947l-0.77547,-5.04075l1.12329,-4.00103" fill="none" stroke="#000000" stroke-width="1.5" stroke-linecap="round"/><path d="M298.78248,193.48309c0,1.19678 -1.02263,2.16695 -2.28409,2.16695c-1.26146,0 -2.28409,-0.97018 -2.28409,-2.16695c0,-1.19678 1.02262,-2.16696 2.28409,-2.16696c1.26146,0 2.28409,0.97018 2.28409,2.16696z" fill="#8c8c8c" stroke="#464646" stroke-width="1" stroke-linecap="butt"/><path d="M296.57591,195.29864l-0.11713,-3.51398" fill="none" stroke="#000000" stroke-width="0.5" stroke-linecap="round"/><path d="M294.46752,193.42452h4.09965" fill="none" stroke="#000000" stroke-width="0.5" stroke-linecap="round"/><path d="M308.80519,203.76552l-9.52605,-5.0352" fill="none" stroke="#000000" stroke-width="1.5" stroke-linecap="round"/><path d="M213.33635,171.40353c0,1.19678 -1.02263,2.16696 -2.28409,2.16696c-1.26146,0 -2.28409,-0.97018 -2.28409,-2.16696c0,-1.19678 1.02262,-2.16695 2.28409,-2.16695c1.26146,0 2.28409,0.97018 2.28409,2.16695z" fill="#8c8c8c" stroke="#464646" stroke-width="1" stroke-linecap="butt"/><path d="M211.12978,173.21908l-0.11713,-3.51398" fill="none" stroke="#000000" stroke-width="0.5" stroke-linecap="round"/><path d="M209.0214,171.34496h4.09965" fill="none" stroke="#000000" stroke-width="0.5" stroke-linecap="round"/><path d="M258.97006,191.49627l5.42231,-15.14509l11.21859,1.86976l6.73116,-4.48744" fill="none" stroke="#000000" stroke-width="3" stroke-linecap="round"/><path d="M283.27698,188.31767l-6.17022,-2.80465l-1.12186,-5.60929l7.29208,1.86976z" fill="#008f19" stroke="#000000" stroke-width="2.5" stroke-linecap="round"/><path d="M255.82008,227.57756v-7.76521l12.5438,-14.03711l9.25852,0.29866l-9.25852,10.45317l12.84247,11.34916z" fill="#b6b6b6" stroke="#000000" stroke-width="3" stroke-linecap="round"/><path d="M254.9241,223.18621l-18.51705,0.29866l5.97324,-2.98662h12.24514" fill="#00c110" stroke="#000000" stroke-width="2" stroke-linecap="round"/><path d="M273.2417,223.49344c0,1.19678 -1.02263,2.16695 -2.28409,2.16695c-1.26146,0 -2.28409,-0.97018 -2.28409,-2.16695c0,-1.19678 1.02262,-2.16696 2.28409,-2.16696c1.26146,0 2.28409,0.97018 2.28409,2.16696z" fill="#8c8c8c" stroke="#464646" stroke-width="1" stroke-linecap="butt"/><path d="M270.918,221.79502l0.11713,3.51398" fill="none" stroke="#000000" stroke-width="0.5" stroke-linecap="round"/><path d="M268.92674,223.43488h4.09965" fill="none" stroke="#000000" stroke-width="0.5" stroke-linecap="round"/><path d="M311.49159,206.06786l3.34253,5.5997c1.20128,1.80086 1.9459,2.97893 1.9459,2.97893l0.89598,5.67458l5.07725,4.18127l2.98662,5.37592l-112.93399,-1.17627" fill="none" stroke="#000000" stroke-width="3" stroke-linecap="round"/><path d="M234.79693,199.2675l-6.18695,-5.09074l0.14723,-6.9887" fill="none" stroke="#000000" stroke-width="2" stroke-linecap="round"/><path d="M260.72978,149.52105v2.61721" fill="#ffffff" stroke="#000000" stroke-width="5" stroke-linecap="round"/><path d="M261.59231,149.76081c0,0.80628 -0.5766,1.4599 -1.28788,1.4599c-0.71128,0 -1.28788,-0.65363 -1.28788,-1.4599c0,-0.80628 0.5766,-1.4599 1.28788,-1.4599c0.71128,0 1.28788,0.65362 1.28788,1.4599z" fill="#ffffff" stroke="none" stroke-width="0" stroke-linecap="butt"/></g></g></svg>
